<?xml version="1.0" encoding="UTF-8"?>
<svg width="906px" height="741px" viewBox="0 0 906 741" version="1.1" xmlns="http://www.w3.org/2000/svg" xmlns:xlink="http://www.w3.org/1999/xlink">
    <!-- Generator: Sketch 57.1 (83088) - https://sketch.com -->
    <title>Noor</title>
    <desc>Created with Sketch.</desc>
    <defs>
        <linearGradient x1="50%" y1="0%" x2="50%" y2="99.8944257%" id="linearGradient-1">
            <stop stop-color="#61DAFB" stop-opacity="0.8" offset="0%"></stop>
            <stop stop-color="#61DAFB" stop-opacity="0" offset="100%"></stop>
        </linearGradient>
        <filter x="-20.0%" y="-20.4%" width="140.0%" height="140.8%" filterUnits="objectBoundingBox" id="filter-2">
            <feGaussianBlur stdDeviation="50" in="SourceGraphic"></feGaussianBlur>
        </filter>
    </defs>
    <g id="Website" stroke="none" stroke-width="1" fill="none" fill-rule="evenodd">
        <g id="Home-Copy" transform="translate(-267.000000, 0.000000)" fill="url(#linearGradient-1)">
            <path d="M470.379847,26.6185567 C482.357374,10.8723713 494.761178,0.769278505 507.591261,-3.69072165 C580.258414,-28.9513168 662.736342,-34 708.267097,-34 C751.886386,-34 845.575194,-26.8748635 922.232724,-3.69072165 C938.599957,1.25935001 953.66172,10.0995562 967.418011,22.8298969 L1095,701 C993.27907,627.471957 924.63343,551.698761 889.06308,473.680412 C853.492729,395.662064 830.301635,270.004847 819.489796,96.7087629 C824.893215,283.694345 824.893215,416.297438 819.489796,494.518041 C814.086377,572.738644 800.171721,641.565964 777.745826,701 C750.96628,673.536823 732.413404,611.023937 722.087199,513.46134 C711.760993,415.898744 707.122774,259.300806 708.172542,43.6675258 C701.966771,256.297739 692.690333,412.895677 680.343228,513.46134 C667.996124,614.027003 650.370892,676.53989 627.467532,701 C602.623415,636.042009 586.85347,567.21469 580.157699,494.518041 C573.461929,421.821393 570.678997,289.2183 571.808905,96.7087629 C556.539109,270.749363 535.203302,396.406579 507.801484,473.680412 C480.399666,550.954245 430.306902,626.727441 357.523191,701 L345,701 L470.379847,26.6185567 Z" id="Noor" filter="url(#filter-2)"></path>
        </g>
    </g>
</svg>