<svg xmlns="http://www.w3.org/2000/svg" width="34" height="32" viewBox="0 0 34 32">
    <g fill="#FFF" fill-rule="nonzero">
        <path d="M33.992 15.554c.026-1.968-1.799-3.79-5.137-5.136a22.37 22.37 0 0 0-1.955-.681c.32-1.211.53-2.36.622-3.411.118-1.365.033-2.54-.252-3.496-.321-1.077-.885-1.857-1.677-2.318-1.714-.999-4.21-.305-7.024 1.948-.51.409-1.025.864-1.536 1.355a21.643 21.643 0 0 0-1.527-1.342C12.686.214 10.19-.483 8.483.512c-.792.461-1.36 1.24-1.677 2.318-.285.955-.367 2.134-.249 3.499.085.989.279 2.066.567 3.198-.62.174-1.209.36-1.77.57C1.988 11.35.118 13.13.09 15.115c-.016 1.283.754 2.527 2.228 3.598 1.183.858 2.83 1.614 4.793 2.206-.164.648-.295 1.28-.393 1.892-.495 3.084-.089 5.379 1.143 6.587l.606-1.437c-.603-.999-.75-2.72-.393-4.93.51-3.176 1.975-6.957 4.127-10.65a41.772 41.772 0 0 1 1.612-2.55 42.162 42.162 0 0 1 3.302-.088c1.09.013 2.165.072 3.21.167a41.692 41.692 0 0 1 3.256 5.71c.842 1.797 1.497 3.551 1.95 5.217.956 3.53.933 6.096-.01 7.307l.566 1.378c1.58-1.375 1.917-4.367.937-8.396 4.41-1.241 6.938-3.251 6.968-5.572zm-26.514 4.04c-1.802-.544-3.3-1.228-4.354-1.994-.763-.557-1.674-1.434-1.66-2.468.016-1.356 1.61-2.72 4.372-3.745a19.767 19.767 0 0 1 1.661-.534 34.732 34.732 0 0 0 1.68 4.34 35.126 35.126 0 0 0-1.7 4.4zm3.534-7.906a43.246 43.246 0 0 0-1.042 1.895 32.394 32.394 0 0 1-1.133-3.06 31.841 31.841 0 0 1 3.217-.534 39.1 39.1 0 0 0-1.042 1.699zm2.044-3.182c-1.621.137-3.167.37-4.596.687a18.892 18.892 0 0 1-.53-2.982c-.2-2.324.242-3.928 1.248-4.51.553-.325 1.294-.341 2.201-.056.966.304 2.096.962 3.27 1.901.471.38.946.796 1.418 1.251a35.343 35.343 0 0 0-3.01 3.709zm4.075-.14c-.773-.01-1.536 0-2.29.029a32.691 32.691 0 0 1 2.195-2.623c.76.81 1.51 1.706 2.24 2.672a45.909 45.909 0 0 0-2.145-.079zm3.96.238a34.968 34.968 0 0 0-3.088-3.807c.475-.458.953-.88 1.428-1.26 2.306-1.847 4.298-2.514 5.47-1.834 1.006.586 1.448 2.187 1.248 4.508-.081.972-.278 2.04-.576 3.169a34.217 34.217 0 0 0-4.481-.776zm1.98 3.08a43.43 43.43 0 0 0-.96-1.567 30.95 30.95 0 0 1 3.079.585 32.405 32.405 0 0 1-1.078 2.884 42.892 42.892 0 0 0-1.042-1.901zm3.593 8.11a34.503 34.503 0 0 0-1.763-4.6 35.198 35.198 0 0 0 1.615-4.135c.642.193 1.252.406 1.825.635 1.386.56 2.51 1.218 3.246 1.909.691.645 1.039 1.296 1.029 1.935-.023 1.617-2.283 3.22-5.952 4.255z"/>
        <path d="M19.198 21.646l-.884-.989-.813.812 2.228 2.226-.177-1.306a1.32 1.32 0 0 0-.354-.743zM21.603 12.99h-.708v5.723l.708.39zM20.047 18.222l.14.072V12.99h-.494l-.567-.567V16.7c0 .638.354 1.237.92 1.522zM13.118 12.99h-.707v6.112l.707-.389zM14.887 16.7v-4.272l-.566.563h-.495v5.336l.177-.105c.53-.285.884-.884.884-1.522zM15.7 20.657l-.885.99c-.177.212-.317.457-.354.742l-.176 1.306 2.227-2.226-.812-.812zM15.523 23.45a5.33 5.33 0 0 1 2.971 0l-1.484-1.483-1.487 1.483zM17.855 20.127l-.848-.952-.849.952.849.848zM26.372 31.702l-4.7-11.752-.567-.317 3.924 12.07zM8.981 31.702l3.925-12.076-.567.318L7.64 31.702z"/>
        <path d="M12.447 31.702l1.307-9.385c.072-.425.249-.812.53-1.13l2.723-3.073 2.722 3.074c.282.317.459.707.53 1.13l1.308 9.384h2.719l-4.062-12.567-.531-.281a2.478 2.478 0 0 1-1.271-2.154v-4.701l-1.415.281L15.592 12v4.661c0 .884-.495 1.732-1.271 2.154l-.531.282-4.065 12.606h2.722zm4.206-18.711h.708v1.414h-.708V12.99zm0 2.121h.708v.707h-.708v-.707z"/>
    </g>
</svg>
